<?xml version="1.0" encoding="utf-8"?>
<!-- Generator: Adobe Illustrator 17.0.0, SVG Export Plug-In . SVG Version: 6.00 Build 0)  -->
<!DOCTYPE svg PUBLIC "-//W3C//DTD SVG 1.1//EN" "http://www.w3.org/Graphics/SVG/1.1/DTD/svg11.dtd">
<svg version="1.1" id="Capa_1" xmlns="http://www.w3.org/2000/svg" xmlns:xlink="http://www.w3.org/1999/xlink" x="0px" y="0px"
	 width="100px" height="100px" viewBox="0 0 100 100" enable-background="new 0 0 100 100" xml:space="preserve">
<g>
	<path fill="#FFFFFF" d="M73.964,7.759c-0.802-3.929-4.283-6.897-8.447-6.897c-0.952,0-1.724,0.771-1.724,1.724
		s0.772,1.724,1.724,1.724c2.852,0,5.172,2.321,5.172,5.172s-2.321,5.172-5.172,5.172c-0.952,0-1.724,0.771-1.724,1.724
		s0.772,1.724,1.724,1.724c4.162,0,7.645-2.967,8.447-6.897h22.588v15.517H3.448V11.207h24.138h5.172
		c0.952,0,1.724-0.771,1.724-1.724s-0.772-1.724-1.724-1.724h-3.131c0.714-2.003,2.61-3.448,4.855-3.448
		c2.852,0,5.172,2.321,5.172,5.172s-2.321,5.172-5.172,5.172c-0.952,0-1.724,0.771-1.724,1.724s0.772,1.724,1.724,1.724
		c4.753,0,8.621-3.867,8.621-8.621s-3.867-8.621-8.621-8.621c-4.162,0-7.645,2.967-8.447,6.897H0v22.414v68.966h100V30.172V7.759
		H73.964z M96.552,95.69H3.448V30.172h93.103V95.69z"/>
	<path fill="#FFFFFF" d="M44.828,4.31C47.679,4.31,50,6.631,50,9.483s-2.321,5.172-5.172,5.172c-0.952,0-1.724,0.771-1.724,1.724
		s0.772,1.724,1.724,1.724c4.753,0,8.621-3.867,8.621-8.621s-3.867-8.621-8.621-8.621c-0.952,0-1.724,0.771-1.724,1.724
		S43.876,4.31,44.828,4.31z"/>
	<path fill="#FFFFFF" d="M55.172,4.31c2.852,0,5.172,2.321,5.172,5.172s-2.321,5.172-5.172,5.172c-0.952,0-1.724,0.771-1.724,1.724
		s0.772,1.724,1.724,1.724c4.753,0,8.621-3.867,8.621-8.621s-3.867-8.621-8.621-8.621c-0.952,0-1.724,0.771-1.724,1.724
		S54.221,4.31,55.172,4.31z"/>
	<path fill="#FFFFFF" d="M15.517,43.966h37.931c0.952,0,1.724-0.771,1.724-1.724c0-0.953-0.772-1.724-1.724-1.724H15.517
		c-0.952,0-1.724,0.771-1.724,1.724C13.793,43.195,14.566,43.966,15.517,43.966z"/>
	<path fill="#FFFFFF" d="M84.483,68.103H58.621c-0.952,0-1.724,0.771-1.724,1.724c0,0.953,0.772,1.724,1.724,1.724h25.862
		c0.952,0,1.724-0.771,1.724-1.724C86.207,68.874,85.434,68.103,84.483,68.103z"/>
	<path fill="#FFFFFF" d="M15.517,57.759h17.241c0.952,0,1.724-0.771,1.724-1.724c0-0.953-0.772-1.724-1.724-1.724H15.517
		c-0.952,0-1.724,0.771-1.724,1.724C13.793,56.988,14.566,57.759,15.517,57.759z"/>
	<path fill="#FFFFFF" d="M84.483,81.897H67.241c-0.952,0-1.724,0.771-1.724,1.724s0.772,1.724,1.724,1.724h17.241
		c0.952,0,1.724-0.771,1.724-1.724S85.434,81.897,84.483,81.897z"/>
	<path fill="#FFFFFF" d="M48.276,56.034c0,0.953,0.772,1.724,1.724,1.724h25.862c0.952,0,1.724-0.771,1.724-1.724
		c0-0.953-0.772-1.724-1.724-1.724H50C49.048,54.31,48.276,55.081,48.276,56.034z"/>
	<path fill="#FFFFFF" d="M42.603,57.259c0.31-0.328,0.5-0.776,0.5-1.224c0-0.45-0.19-0.898-0.5-1.224
		c-0.638-0.638-1.81-0.638-2.448,0c-0.31,0.326-0.5,0.774-0.5,1.224c0,0.448,0.19,0.897,0.5,1.224c0.328,0.326,0.776,0.5,1.224,0.5
		C41.828,57.759,42.276,57.584,42.603,57.259z"/>
	<path fill="#FFFFFF" d="M22.414,69.828c0,0.953,0.772,1.724,1.724,1.724H50c0.952,0,1.724-0.771,1.724-1.724
		c0-0.953-0.772-1.724-1.724-1.724H24.138C23.186,68.103,22.414,68.874,22.414,69.828z"/>
	<path fill="#FFFFFF" d="M15.517,71.552c0.448,0,0.897-0.19,1.224-0.5c0.31-0.328,0.5-0.776,0.5-1.224c0-0.45-0.19-0.898-0.5-1.207
		c-0.638-0.655-1.81-0.655-2.448-0.017c-0.31,0.326-0.5,0.774-0.5,1.224c0,0.448,0.19,0.897,0.5,1.224
		C14.621,71.362,15.052,71.552,15.517,71.552z"/>
	<path fill="#FFFFFF" d="M84.483,57.759c0.448,0,0.897-0.174,1.224-0.5c0.328-0.328,0.5-0.776,0.5-1.224
		c0-0.45-0.172-0.898-0.5-1.224c-0.655-0.638-1.81-0.638-2.448,0c-0.31,0.326-0.5,0.774-0.5,1.224c0,0.448,0.19,0.897,0.5,1.224
		C83.586,57.584,84.034,57.759,84.483,57.759z"/>
	<path fill="#FFFFFF" d="M58.621,81.897H15.517c-0.952,0-1.724,0.771-1.724,1.724s0.772,1.724,1.724,1.724h43.103
		c0.952,0,1.724-0.771,1.724-1.724S59.572,81.897,58.621,81.897z"/>
</g>
</svg>
