<?xml version="1.0" encoding="utf-8"?>
<!-- Generator: Adobe Illustrator 17.0.0, SVG Export Plug-In . SVG Version: 6.00 Build 0)  -->
<!DOCTYPE svg PUBLIC "-//W3C//DTD SVG 1.1 Tiny//EN" "http://www.w3.org/Graphics/SVG/1.1/DTD/svg11-tiny.dtd">
<svg version="1.1" baseProfile="tiny" id="Capa_1" xmlns="http://www.w3.org/2000/svg" xmlns:xlink="http://www.w3.org/1999/xlink"
	 x="0px" y="0px" width="100px" height="100px" viewBox="0 0 100 100" xml:space="preserve">
<g>
	<g>
		<path fill="#FFFFFF" d="M80.965,69.36c-0.397,0-0.793-0.145-1.103-0.439L61.309,51.516c-0.648-0.606-0.68-1.628-0.071-2.277
			c0.609-0.655,1.625-0.684,2.28-0.071l18.554,17.406c0.648,0.606,0.68,1.628,0.071,2.277C81.823,69.189,81.398,69.36,80.965,69.36z
			"/>
		<path fill="#FFFFFF" d="M19.031,69.36c-0.429,0-0.858-0.171-1.177-0.509c-0.609-0.648-0.577-1.67,0.071-2.277l18.561-17.406
			c0.651-0.606,1.674-0.58,2.28,0.071c0.609,0.648,0.577,1.67-0.071,2.277L20.134,68.922C19.825,69.215,19.428,69.36,19.031,69.36z"
			/>
	</g>
	<path fill="#FFFFFF" d="M91.939,85.544H8.061C3.618,85.544,0,81.93,0,77.483V22.514c0-4.447,3.618-8.061,8.061-8.061h83.877
		c4.443,0,8.061,3.615,8.061,8.061v54.969C100,81.93,96.382,85.544,91.939,85.544z M8.061,17.677c-2.667,0-4.837,2.17-4.837,4.837
		v54.969c0,2.667,2.17,4.837,4.837,4.837h83.877c2.667,0,4.837-2.17,4.837-4.837V22.514c0-2.667-2.17-4.837-4.837-4.837H8.061z"/>
	<path fill="#FFFFFF" d="M50,58.1c-2.144,0-4.289-0.713-5.92-2.135L2.676,19.847c-0.671-0.584-0.742-1.603-0.158-2.277
		c0.59-0.671,1.606-0.732,2.277-0.155l41.403,36.115c2.06,1.796,5.543,1.796,7.6,0L95.15,17.474
		c0.667-0.584,1.683-0.519,2.277,0.155c0.584,0.674,0.516,1.69-0.155,2.277L55.92,55.962C54.285,57.387,52.144,58.1,50,58.1z"/>
</g>
</svg>
