<?xml version="1.0" encoding="utf-8"?>
<!-- Generator: Adobe Illustrator 17.0.0, SVG Export Plug-In . SVG Version: 6.00 Build 0)  -->
<!DOCTYPE svg PUBLIC "-//W3C//DTD SVG 1.1//EN" "http://www.w3.org/Graphics/SVG/1.1/DTD/svg11.dtd">
<svg version="1.1" id="Calque_1" xmlns="http://www.w3.org/2000/svg" xmlns:xlink="http://www.w3.org/1999/xlink" x="0px" y="0px"
	 width="60px" height="150px" viewBox="0 0 60 150" enable-background="new 0 0 60 150" xml:space="preserve">
<line fill="none" stroke="#000000" stroke-width="2.162" stroke-linecap="round" stroke-miterlimit="10" x1="1.215" y1="85.561" x2="28.675" y2="85.561"/>
<line fill="none" stroke="#000000" stroke-width="2.162" stroke-linecap="round" stroke-miterlimit="10" x1="1.215" y1="75" x2="28.675" y2="75"/>
<line fill="none" stroke="#000000" stroke-width="2.162" stroke-linecap="round" stroke-miterlimit="10" x1="1.215" y1="64.439" x2="28.675" y2="64.439"/>
<line fill="none" stroke="#FFFFFF" stroke-width="2.162" stroke-linecap="round" stroke-miterlimit="10" x1="31.33" y1="85.561" x2="58.79" y2="85.561"/>
<line fill="none" stroke="#FFFFFF" stroke-width="2.162" stroke-linecap="round" stroke-miterlimit="10" x1="31.33" y1="75" x2="58.79" y2="75"/>
<line fill="none" stroke="#FFFFFF" stroke-width="2.162" stroke-linecap="round" stroke-miterlimit="10" x1="31.33" y1="64.439" x2="58.79" y2="64.439"/>
<g>
	<g>
		<g>
			<path d="M27.866,21.379c-3.191-3.519-3.672-5.285-3.672-10.907c0-5.782-4.251-10.469-9.495-10.469S5.203,4.691,5.203,10.472
				c0,3.031-0.073,4.163-0.452,5.552c-0.471,1.731-1.437,3.388-3.22,5.354c-0.854,0.942-0.249,2.553,0.959,2.553h7.528L9.95,24.68
				c0,2.891,2.126,5.234,4.748,5.234s4.748-2.343,4.748-5.234l-0.068-0.748h7.529C28.115,23.932,28.72,22.321,27.866,21.379z
				 M14.699,28.418c-1.873,0-3.391-1.674-3.391-3.739l0.068-0.748h6.645l0.069,0.748C18.09,26.744,16.572,28.418,14.699,28.418z
				 M2.491,22.436C6.56,17.95,6.56,14.959,6.56,10.472c0-4.955,3.644-8.973,8.139-8.973s8.139,4.018,8.139,8.973
				c0,4.487,0,7.478,4.069,11.964H2.491z"/>
		</g>
	</g>
</g>
<g>
	<g>
		<g>
			<path fill="#FFFFFF" d="M58.235,21.4c-3.184-3.51-3.663-5.271-3.663-10.88c0-5.767-4.24-10.442-9.472-10.442
				s-9.472,4.675-9.472,10.442c0,3.024-0.073,4.153-0.451,5.538c-0.47,1.726-1.434,3.379-3.212,5.341
				c-0.852,0.94-0.249,2.546,0.957,2.546h7.51l-0.068,0.746c0,2.884,2.12,5.221,4.736,5.221c2.616,0,4.736-2.338,4.736-5.221
				l-0.068-0.746h7.51C58.484,23.947,59.087,22.34,58.235,21.4z M45.101,28.422c-1.868,0-3.383-1.67-3.383-3.729l0.068-0.746h6.629
				l0.069,0.746C48.484,26.752,46.969,28.422,45.101,28.422z M32.923,22.455c4.059-4.475,4.059-7.459,4.059-11.934
				c0-4.943,3.635-8.951,8.118-8.951s8.118,4.008,8.119,8.951c0,4.475,0,7.459,4.059,11.934H32.923z"/>
		</g>
	</g>
</g>
<g>
	<g>
		<path d="M22.189,92.28c-0.241-1.179-1.285-2.069-2.534-2.069c-0.286,0-0.517,0.231-0.517,0.517s0.232,0.517,0.517,0.517
			c0.856,0,1.552,0.696,1.552,1.552c0,0.856-0.696,1.552-1.552,1.552c-0.286,0-0.517,0.231-0.517,0.517s0.232,0.517,0.517,0.517
			c1.249,0,2.293-0.89,2.534-2.069h6.776v4.655H1.034v-4.655h7.241h1.552c0.286,0,0.517-0.231,0.517-0.517s-0.232-0.517-0.517-0.517
			H8.888c0.214-0.601,0.783-1.034,1.457-1.034c0.856,0,1.552,0.696,1.552,1.552c0,0.856-0.696,1.552-1.552,1.552
			c-0.286,0-0.517,0.231-0.517,0.517s0.232,0.517,0.517,0.517c1.426,0,2.586-1.16,2.586-2.586s-1.16-2.586-2.586-2.586
			c-1.249,0-2.293,0.89-2.534,2.069H0v6.724v20.69h30v-20.69V92.28H22.189z M28.966,118.659H1.034V99.004h27.931V118.659z"/>
		<path d="M13.448,91.245c0.856,0,1.552,0.696,1.552,1.552c0,0.856-0.696,1.552-1.552,1.552c-0.286,0-0.517,0.231-0.517,0.517
			s0.232,0.517,0.517,0.517c1.426,0,2.586-1.16,2.586-2.586s-1.16-2.586-2.586-2.586c-0.286,0-0.517,0.231-0.517,0.517
			S13.163,91.245,13.448,91.245z"/>
		<path d="M16.552,91.245c0.856,0,1.552,0.696,1.552,1.552c0,0.856-0.696,1.552-1.552,1.552c-0.286,0-0.517,0.231-0.517,0.517
			s0.232,0.517,0.517,0.517c1.426,0,2.586-1.16,2.586-2.586s-1.16-2.586-2.586-2.586c-0.286,0-0.517,0.231-0.517,0.517
			S16.266,91.245,16.552,91.245z"/>
		<path d="M4.655,103.142h11.379c0.286,0,0.517-0.231,0.517-0.517s-0.232-0.517-0.517-0.517H4.655c-0.286,0-0.517,0.231-0.517,0.517
			S4.37,103.142,4.655,103.142z"/>
		<path d="M25.345,110.383h-7.759c-0.286,0-0.517,0.231-0.517,0.517s0.232,0.517,0.517,0.517h7.759c0.286,0,0.517-0.231,0.517-0.517
			S25.63,110.383,25.345,110.383z"/>
		<path d="M4.655,107.28h5.172c0.286,0,0.517-0.231,0.517-0.517s-0.232-0.517-0.517-0.517H4.655c-0.286,0-0.517,0.231-0.517,0.517
			S4.37,107.28,4.655,107.28z"/>
		<path d="M25.345,114.521h-5.172c-0.286,0-0.517,0.231-0.517,0.517s0.232,0.517,0.517,0.517h5.172c0.286,0,0.517-0.231,0.517-0.517
			S25.63,114.521,25.345,114.521z"/>
		<path d="M14.483,106.762c0,0.286,0.232,0.517,0.517,0.517h7.759c0.286,0,0.517-0.231,0.517-0.517s-0.232-0.517-0.517-0.517H15
			C14.714,106.245,14.483,106.476,14.483,106.762z"/>
		<path d="M12.781,107.13c0.093-0.098,0.15-0.233,0.15-0.367c0-0.135-0.057-0.269-0.15-0.367c-0.191-0.191-0.543-0.191-0.734,0
			c-0.093,0.098-0.15,0.232-0.15,0.367c0,0.134,0.057,0.269,0.15,0.367c0.098,0.098,0.233,0.15,0.367,0.15
			S12.683,107.227,12.781,107.13z"/>
		<path d="M6.724,110.9c0,0.286,0.232,0.517,0.517,0.517H15c0.286,0,0.517-0.231,0.517-0.517s-0.232-0.517-0.517-0.517H7.241
			C6.956,110.383,6.724,110.614,6.724,110.9z"/>
		<path d="M4.655,111.418c0.134,0,0.269-0.057,0.367-0.15c0.093-0.098,0.15-0.233,0.15-0.367c0-0.135-0.057-0.269-0.15-0.362
			c-0.191-0.197-0.543-0.197-0.734-0.005c-0.093,0.098-0.15,0.232-0.15,0.367c0,0.134,0.057,0.269,0.15,0.367
			C4.386,111.361,4.516,111.418,4.655,111.418z"/>
		<path d="M25.345,107.28c0.134,0,0.269-0.052,0.367-0.15c0.098-0.098,0.15-0.233,0.15-0.367c0-0.135-0.052-0.269-0.15-0.367
			c-0.197-0.191-0.543-0.191-0.734,0c-0.093,0.098-0.15,0.232-0.15,0.367c0,0.134,0.057,0.269,0.15,0.367
			C25.076,107.227,25.21,107.28,25.345,107.28z"/>
		<path d="M17.586,114.521H4.655c-0.286,0-0.517,0.231-0.517,0.517s0.232,0.517,0.517,0.517h12.931c0.286,0,0.517-0.231,0.517-0.517
			S17.872,114.521,17.586,114.521z"/>
	</g>
</g>
<g>
	<g>
		<path fill="#FFFFFF" d="M52.189,92.28c-0.241-1.179-1.285-2.069-2.534-2.069c-0.286,0-0.517,0.231-0.517,0.517
			s0.232,0.517,0.517,0.517c0.856,0,1.552,0.696,1.552,1.552c0,0.856-0.696,1.552-1.552,1.552c-0.286,0-0.517,0.231-0.517,0.517
			s0.232,0.517,0.517,0.517c1.249,0,2.293-0.89,2.534-2.069h6.776v4.655H31.034v-4.655h7.241h1.552c0.286,0,0.517-0.231,0.517-0.517
			s-0.232-0.517-0.517-0.517h-0.939c0.214-0.601,0.783-1.034,1.457-1.034c0.856,0,1.552,0.696,1.552,1.552
			c0,0.856-0.696,1.552-1.552,1.552c-0.286,0-0.517,0.231-0.517,0.517s0.232,0.517,0.517,0.517c1.426,0,2.586-1.16,2.586-2.586
			s-1.16-2.586-2.586-2.586c-1.249,0-2.293,0.89-2.534,2.069H30v6.724v20.69h30v-20.69V92.28H52.189z M58.966,118.659H31.034V99.004
			h27.931V118.659z"/>
		<path fill="#FFFFFF" d="M43.448,91.245c0.856,0,1.552,0.696,1.552,1.552c0,0.856-0.696,1.552-1.552,1.552
			c-0.286,0-0.517,0.231-0.517,0.517s0.232,0.517,0.517,0.517c1.426,0,2.586-1.16,2.586-2.586s-1.16-2.586-2.586-2.586
			c-0.286,0-0.517,0.231-0.517,0.517S43.163,91.245,43.448,91.245z"/>
		<path fill="#FFFFFF" d="M46.552,91.245c0.856,0,1.552,0.696,1.552,1.552c0,0.856-0.696,1.552-1.552,1.552
			c-0.286,0-0.517,0.231-0.517,0.517s0.232,0.517,0.517,0.517c1.426,0,2.586-1.16,2.586-2.586s-1.16-2.586-2.586-2.586
			c-0.286,0-0.517,0.231-0.517,0.517S46.266,91.245,46.552,91.245z"/>
		<path fill="#FFFFFF" d="M34.655,103.142h11.379c0.286,0,0.517-0.231,0.517-0.517s-0.232-0.517-0.517-0.517H34.655
			c-0.286,0-0.517,0.231-0.517,0.517S34.37,103.142,34.655,103.142z"/>
		<path fill="#FFFFFF" d="M55.345,110.383h-7.759c-0.286,0-0.517,0.231-0.517,0.517s0.232,0.517,0.517,0.517h7.759
			c0.286,0,0.517-0.231,0.517-0.517S55.63,110.383,55.345,110.383z"/>
		<path fill="#FFFFFF" d="M34.655,107.28h5.172c0.286,0,0.517-0.231,0.517-0.517s-0.232-0.517-0.517-0.517h-5.172
			c-0.286,0-0.517,0.231-0.517,0.517S34.37,107.28,34.655,107.28z"/>
		<path fill="#FFFFFF" d="M55.345,114.521h-5.172c-0.286,0-0.517,0.231-0.517,0.517s0.232,0.517,0.517,0.517h5.172
			c0.286,0,0.517-0.231,0.517-0.517S55.63,114.521,55.345,114.521z"/>
		<path fill="#FFFFFF" d="M44.483,106.762c0,0.286,0.232,0.517,0.517,0.517h7.759c0.286,0,0.517-0.231,0.517-0.517
			s-0.232-0.517-0.517-0.517H45C44.714,106.245,44.483,106.476,44.483,106.762z"/>
		<path fill="#FFFFFF" d="M42.781,107.13c0.093-0.098,0.15-0.233,0.15-0.367c0-0.135-0.057-0.269-0.15-0.367
			c-0.191-0.191-0.543-0.191-0.734,0c-0.093,0.098-0.15,0.232-0.15,0.367c0,0.134,0.057,0.269,0.15,0.367
			c0.098,0.098,0.233,0.15,0.367,0.15C42.548,107.28,42.683,107.227,42.781,107.13z"/>
		<path fill="#FFFFFF" d="M36.724,110.9c0,0.286,0.232,0.517,0.517,0.517H45c0.286,0,0.517-0.231,0.517-0.517
			s-0.232-0.517-0.517-0.517h-7.759C36.956,110.383,36.724,110.614,36.724,110.9z"/>
		<path fill="#FFFFFF" d="M34.655,111.418c0.134,0,0.269-0.057,0.367-0.15c0.093-0.098,0.15-0.233,0.15-0.367
			c0-0.135-0.057-0.269-0.15-0.362c-0.191-0.197-0.543-0.197-0.734-0.005c-0.093,0.098-0.15,0.232-0.15,0.367
			c0,0.134,0.057,0.269,0.15,0.367C34.386,111.361,34.516,111.418,34.655,111.418z"/>
		<path fill="#FFFFFF" d="M55.345,107.28c0.134,0,0.269-0.052,0.367-0.15c0.098-0.098,0.15-0.233,0.15-0.367
			c0-0.135-0.052-0.269-0.15-0.367c-0.197-0.191-0.543-0.191-0.734,0c-0.093,0.098-0.15,0.232-0.15,0.367
			c0,0.134,0.057,0.269,0.15,0.367C55.076,107.227,55.21,107.28,55.345,107.28z"/>
		<path fill="#FFFFFF" d="M47.586,114.521H34.655c-0.286,0-0.517,0.231-0.517,0.517s0.232,0.517,0.517,0.517h12.931
			c0.286,0,0.517-0.231,0.517-0.517S47.872,114.521,47.586,114.521z"/>
	</g>
</g>
<g>
	<g>
		<g>
			<path d="M19.219,122.578c-4.523,0-8.203,3.68-8.203,8.203c0,0.266,0.013,0.529,0.038,0.788c-0.654-0.421-1.431-0.667-2.265-0.667
				c-2.313,0-4.195,1.882-4.195,4.195v0.16v0.709v1.533c0,1.187,0.496,2.26,1.291,3.023H5.249c-2.895,0-5.249,2.355-5.249,5.249
				v3.641C0,149.738,0.262,150,0.586,150h16.406c0.324,0,0.586-0.262,0.586-0.586v-3.641c0-2.895-2.355-5.249-5.249-5.249h-0.636
				c0.795-0.764,1.291-1.836,1.291-3.023v-1.394c1.506,1.76,3.742,2.878,6.234,2.878c4.523,0,8.203-3.68,8.203-8.203
				C27.422,126.258,23.742,122.578,19.219,122.578z M5.766,135.258v-0.16c0-1.667,1.356-3.023,3.023-3.023
				c1.614,0,2.937,1.272,3.019,2.866l-1.528-0.898c-0.247-0.145-0.562-0.091-0.746,0.129c-0.644,0.768-1.588,1.209-2.59,1.209H5.766
				V135.258z M11.734,144.864c0.096,0,0.193-0.024,0.281-0.072c0.188-0.103,0.305-0.3,0.305-0.514v-2.448
				c0-0.046-0.006-0.091-0.016-0.135h0.025c2.248,0,4.078,1.829,4.078,4.078v3.055H1.172v-3.055c0-2.248,1.829-4.078,4.078-4.078
				h0.009v2.582c0,0.214,0.117,0.412,0.305,0.514c0.188,0.103,0.417,0.094,0.598-0.022l2.042-1.314v1.272
				c0,0.324,0.262,0.586,0.586,0.586s0.586-0.262,0.586-0.586v-1.272l2.042,1.314C11.513,144.832,11.624,144.864,11.734,144.864z
				 M6.43,143.204v-1.509h4.734c-0.01,0.043-0.016,0.088-0.016,0.135v1.374l-2.042-1.314c-0.193-0.124-0.441-0.124-0.634,0
				L6.43,143.204z M11.812,137.5c0,1.667-1.356,3.023-3.023,3.023s-3.023-1.356-3.023-3.023v-0.947h1.179
				c1.182,0,2.303-0.455,3.146-1.262l1.722,1.012C11.812,136.302,11.812,137.5,11.812,137.5z M19.219,137.812
				c-3.877,0-7.031-3.154-7.031-7.031s3.154-7.031,7.031-7.031s7.031,3.154,7.031,7.031S23.096,137.812,19.219,137.812z"/>
		</g>
	</g>
	<g>
		<g>
			<path d="M9.203,146.451c-0.109-0.109-0.26-0.172-0.414-0.172s-0.305,0.063-0.414,0.172c-0.109,0.109-0.172,0.26-0.172,0.414
				s0.063,0.305,0.172,0.414c0.109,0.109,0.26,0.172,0.414,0.172s0.305-0.063,0.414-0.172c0.109-0.109,0.172-0.26,0.172-0.414
				S9.312,146.56,9.203,146.451z"/>
		</g>
	</g>
	<g>
		<g>
			<path d="M14.619,145.664h-2.637c-0.324,0-0.586,0.262-0.586,0.586s0.262,0.586,0.586,0.586h2.637
				c0.324,0,0.586-0.262,0.586-0.586S14.943,145.664,14.619,145.664z"/>
		</g>
	</g>
	<g>
		<g>
			<path d="M19.219,120c-2.569,0-5.058,0.919-7.007,2.587c-1.928,1.65-3.217,3.93-3.629,6.42c-0.053,0.319,0.163,0.621,0.482,0.674
				c0.319,0.053,0.621-0.163,0.674-0.482c0.77-4.651,4.757-8.027,9.48-8.027c5.299,0,9.609,4.311,9.609,9.609
				s-4.311,9.609-9.609,9.609c-0.324,0-0.586,0.262-0.586,0.586s0.262,0.586,0.586,0.586c5.945,0,10.781-4.836,10.781-10.781
				S25.164,120,19.219,120z"/>
		</g>
	</g>
	<g>
		<g>
			<path d="M17.41,140.221c-0.002,0-0.006-0.001-0.008-0.002c-0.317-0.061-0.623,0.146-0.685,0.463
				c-0.062,0.318,0.146,0.626,0.463,0.688c0.039,0.008,0.077,0.011,0.116,0.011c0.274,0,0.518-0.193,0.574-0.471
				C17.933,140.593,17.727,140.284,17.41,140.221z"/>
		</g>
	</g>
	<g>
		<g>
			<path d="M22.377,127.632c-0.229-0.229-0.6-0.229-0.829,0l-2.32,2.32l-1.221-1.221c-0.229-0.229-0.6-0.229-0.829,0
				c-0.229,0.229-0.229,0.6,0,0.829l1.636,1.636c0.114,0.114,0.264,0.172,0.414,0.172s0.3-0.057,0.414-0.172l2.735-2.735
				C22.606,128.232,22.606,127.861,22.377,127.632z"/>
		</g>
	</g>
	<g>
		<g>
			<path d="M19.219,124.458c-0.324,0-0.586,0.262-0.586,0.586v0.415c0,0.324,0.262,0.586,0.586,0.586s0.586-0.262,0.586-0.586
				v-0.415C19.805,124.72,19.542,124.458,19.219,124.458z"/>
		</g>
	</g>
	<g>
		<g>
			<path d="M19.219,135.518c-0.324,0-0.586,0.262-0.586,0.586v0.415c0,0.324,0.262,0.586,0.586,0.586s0.586-0.262,0.586-0.586
				v-0.415C19.805,135.78,19.542,135.518,19.219,135.518z"/>
		</g>
	</g>
	<g>
		<g>
			<path d="M24.956,130.195h-0.415c-0.324,0-0.586,0.262-0.586,0.586s0.262,0.586,0.586,0.586h0.415
				c0.324,0,0.586-0.262,0.586-0.586S25.28,130.195,24.956,130.195z"/>
		</g>
	</g>
	<g>
		<g>
			<path d="M13.897,130.195h-0.415c-0.324,0-0.586,0.262-0.586,0.586s0.262,0.586,0.586,0.586h0.415
				c0.324,0,0.586-0.262,0.586-0.586S14.22,130.195,13.897,130.195z"/>
		</g>
	</g>
</g>
<g>
	<g>
		<g>
			<path fill="#FFFFFF" d="M49.319,122.578c-4.523,0-8.203,3.68-8.203,8.203c0,0.266,0.013,0.529,0.038,0.788
				c-0.654-0.421-1.431-0.667-2.265-0.667c-2.313,0-4.195,1.882-4.195,4.195v0.16v0.709v1.533c0,1.187,0.496,2.26,1.291,3.023H35.35
				c-2.895,0-5.249,2.355-5.249,5.249v3.641c0,0.324,0.262,0.586,0.586,0.586h16.406c0.324,0,0.586-0.262,0.586-0.586v-3.641
				c0-2.895-2.355-5.249-5.249-5.249h-0.636c0.795-0.764,1.291-1.836,1.291-3.023v-1.394c1.506,1.76,3.742,2.878,6.234,2.878
				c4.523,0,8.203-3.68,8.203-8.203C57.522,126.258,53.842,122.578,49.319,122.578z M35.866,135.258v-0.16
				c0-1.667,1.356-3.023,3.023-3.023c1.614,0,2.937,1.272,3.019,2.866l-1.528-0.898c-0.247-0.145-0.562-0.091-0.746,0.129
				c-0.644,0.768-1.588,1.209-2.59,1.209h-1.179V135.258z M41.834,144.864c0.096,0,0.193-0.024,0.281-0.072
				c0.188-0.103,0.305-0.3,0.305-0.514v-2.448c0-0.046-0.006-0.091-0.016-0.135h0.025c2.248,0,4.078,1.829,4.078,4.078v3.055H31.272
				v-3.055c0-2.248,1.829-4.078,4.078-4.078h0.009v2.582c0,0.214,0.117,0.412,0.305,0.514c0.188,0.103,0.417,0.094,0.598-0.022
				l2.042-1.314v1.272c0,0.324,0.262,0.586,0.586,0.586c0.324,0,0.586-0.262,0.586-0.586v-1.272l2.042,1.314
				C41.614,144.832,41.724,144.864,41.834,144.864z M36.53,143.204v-1.509h4.734c-0.01,0.043-0.016,0.088-0.016,0.135v1.374
				l-2.042-1.314c-0.193-0.124-0.441-0.124-0.634,0L36.53,143.204z M41.913,137.5c0,1.667-1.356,3.023-3.023,3.023
				c-1.667,0-3.023-1.356-3.023-3.023v-0.947h1.179c1.182,0,2.303-0.455,3.146-1.262l1.722,1.012L41.913,137.5z M49.319,137.812
				c-3.877,0-7.031-3.154-7.031-7.031s3.154-7.031,7.031-7.031s7.031,3.154,7.031,7.031S53.196,137.812,49.319,137.812z"/>
		</g>
	</g>
	<g>
		<g>
			<path fill="#FFFFFF" d="M39.304,146.451c-0.109-0.109-0.26-0.172-0.414-0.172c-0.154,0-0.305,0.063-0.414,0.172
				c-0.109,0.109-0.172,0.26-0.172,0.414s0.063,0.305,0.172,0.414c0.109,0.109,0.26,0.172,0.414,0.172
				c0.154,0,0.305-0.063,0.414-0.172c0.109-0.109,0.172-0.26,0.172-0.414S39.413,146.56,39.304,146.451z"/>
		</g>
	</g>
	<g>
		<g>
			<path fill="#FFFFFF" d="M44.719,145.664h-2.637c-0.324,0-0.586,0.262-0.586,0.586s0.262,0.586,0.586,0.586h2.637
				c0.324,0,0.586-0.262,0.586-0.586S45.043,145.664,44.719,145.664z"/>
		</g>
	</g>
	<g>
		<g>
			<path fill="#FFFFFF" d="M49.319,120c-2.569,0-5.058,0.919-7.007,2.587c-1.928,1.65-3.217,3.93-3.629,6.42
				c-0.053,0.319,0.163,0.621,0.482,0.674c0.319,0.053,0.621-0.163,0.674-0.482c0.77-4.651,4.757-8.027,9.48-8.027
				c5.299,0,9.609,4.311,9.609,9.609s-4.311,9.609-9.609,9.609c-0.324,0-0.586,0.262-0.586,0.586s0.262,0.586,0.586,0.586
				c5.945,0,10.781-4.836,10.781-10.781S55.264,120,49.319,120z"/>
		</g>
	</g>
	<g>
		<g>
			<path fill="#FFFFFF" d="M47.51,140.221c-0.002,0-0.006-0.001-0.008-0.002c-0.317-0.061-0.623,0.146-0.685,0.463
				c-0.062,0.318,0.146,0.626,0.463,0.688c0.039,0.008,0.077,0.011,0.116,0.011c0.274,0,0.518-0.193,0.574-0.471
				C48.033,140.593,47.827,140.284,47.51,140.221z"/>
		</g>
	</g>
	<g>
		<g>
			<path fill="#FFFFFF" d="M52.478,127.632c-0.229-0.229-0.6-0.229-0.829,0l-2.32,2.32l-1.221-1.221c-0.229-0.229-0.6-0.229-0.829,0
				s-0.229,0.6,0,0.829l1.636,1.636c0.114,0.114,0.264,0.172,0.414,0.172s0.3-0.057,0.414-0.172l2.735-2.735
				C52.706,128.232,52.706,127.861,52.478,127.632z"/>
		</g>
	</g>
	<g>
		<g>
			<path fill="#FFFFFF" d="M49.319,124.458c-0.324,0-0.586,0.262-0.586,0.586v0.415c0,0.324,0.262,0.586,0.586,0.586
				c0.324,0,0.586-0.262,0.586-0.586v-0.415C49.905,124.72,49.643,124.458,49.319,124.458z"/>
		</g>
	</g>
	<g>
		<g>
			<path fill="#FFFFFF" d="M49.319,135.518c-0.324,0-0.586,0.262-0.586,0.586v0.415c0,0.324,0.262,0.586,0.586,0.586
				c0.324,0,0.586-0.262,0.586-0.586v-0.415C49.905,135.78,49.643,135.518,49.319,135.518z"/>
		</g>
	</g>
	<g>
		<g>
			<path fill="#FFFFFF" d="M55.056,130.195h-0.415c-0.324,0-0.586,0.262-0.586,0.586s0.262,0.586,0.586,0.586h0.415
				c0.324,0,0.586-0.262,0.586-0.586S55.38,130.195,55.056,130.195z"/>
		</g>
	</g>
	<g>
		<g>
			<path fill="#FFFFFF" d="M43.997,130.195h-0.415c-0.324,0-0.586,0.262-0.586,0.586s0.262,0.586,0.586,0.586h0.415
				c0.324,0,0.586-0.262,0.586-0.586S44.32,130.195,43.997,130.195z"/>
		</g>
	</g>
</g>
<g>
	<g>
		<g>
			<path d="M17.788,41.218c-0.302,0-0.547,0.245-0.547,0.547s0.245,0.547,0.547,0.547c0.302,0,0.547-0.245,0.547-0.547
				S18.09,41.218,17.788,41.218z"/>
		</g>
	</g>
	<g>
		<g>
			<path d="M28.197,55.097l-7.302-7.302c1.19-1.792,1.816-3.867,1.816-6.03c0-6.033-4.908-10.941-10.941-10.941
				S0.831,35.733,0.831,41.765s4.908,10.941,10.941,10.941c2.164,0,4.239-0.627,6.03-1.816l2.018,2.018c0,0,0.001,0.001,0.001,0.001
				l5.283,5.283c0.413,0.413,0.963,0.641,1.547,0.641s1.134-0.228,1.547-0.641c0.413-0.413,0.641-0.963,0.641-1.547
				S28.611,55.51,28.197,55.097z M17.544,49.737C17.544,49.737,17.544,49.737,17.544,49.737c-1.689,1.227-3.685,1.875-5.773,1.875
				c-5.429,0-9.846-4.417-9.846-9.846s4.417-9.846,9.846-9.846s9.846,4.417,9.846,9.846c0,2.088-0.648,4.084-1.875,5.773
				C19.129,48.384,18.39,49.123,17.544,49.737z M18.692,50.233c0.566-0.463,1.084-0.981,1.547-1.547l1.552,1.552
				c-0.472,0.557-0.99,1.075-1.547,1.547L18.692,50.233z M27.424,57.418c-0.207,0.207-0.481,0.321-0.773,0.321
				c-0.292,0-0.567-0.114-0.773-0.321l-4.857-4.857c0.554-0.475,1.071-0.993,1.547-1.547l4.857,4.857
				c0.207,0.206,0.321,0.481,0.321,0.773S27.63,57.211,27.424,57.418z"/>
		</g>
	</g>
	<g>
		<g>
			<path d="M11.771,33.013c-4.826,0-8.752,3.926-8.752,8.752s3.926,8.752,8.752,8.752s8.752-3.926,8.752-8.752
				S16.597,33.013,11.771,33.013z M11.771,49.424c-4.223,0-7.658-3.436-7.658-7.658s3.436-7.658,7.658-7.658
				s7.658,3.436,7.658,7.658S15.994,49.424,11.771,49.424z"/>
		</g>
	</g>
	<g>
		<g>
			<path d="M17.901,39.417c-0.471-1.226-1.291-2.274-2.372-3.031c-1.106-0.775-2.406-1.185-3.758-1.185
				c-0.302,0-0.547,0.245-0.547,0.547s0.245,0.547,0.547,0.547c2.248,0,4.301,1.412,5.109,3.514
				c0.084,0.217,0.291,0.351,0.511,0.351c0.065,0,0.132-0.012,0.196-0.037C17.869,40.015,18.01,39.699,17.901,39.417z"/>
		</g>
	</g>
	<g>
	</g>
	<g>
	</g>
	<g>
	</g>
	<g>
	</g>
	<g>
	</g>
	<g>
	</g>
	<g>
	</g>
	<g>
	</g>
	<g>
	</g>
	<g>
	</g>
	<g>
	</g>
	<g>
	</g>
	<g>
	</g>
	<g>
	</g>
	<g>
	</g>
</g>
<g>
	<g>
		<g>
			<path fill="#FFFFFF" d="M47.437,41.218c-0.302,0-0.547,0.245-0.547,0.547s0.245,0.547,0.547,0.547
				c0.302,0,0.547-0.245,0.547-0.547S47.739,41.218,47.437,41.218z"/>
		</g>
	</g>
	<g>
		<g>
			<path fill="#FFFFFF" d="M57.846,55.097l-7.302-7.302c1.19-1.792,1.816-3.867,1.816-6.03c0-6.033-4.908-10.941-10.941-10.941
				s-10.941,4.908-10.941,10.941s4.908,10.941,10.941,10.941c2.164,0,4.239-0.627,6.03-1.816l2.018,2.018
				c0,0,0.001,0.001,0.001,0.001l5.283,5.283c0.413,0.413,0.963,0.641,1.547,0.641s1.134-0.228,1.547-0.641
				c0.413-0.413,0.641-0.963,0.641-1.547S58.259,55.51,57.846,55.097z M47.193,49.737C47.193,49.737,47.192,49.737,47.193,49.737
				c-1.689,1.227-3.685,1.875-5.773,1.875c-5.429,0-9.846-4.417-9.846-9.846s4.417-9.846,9.846-9.846s9.846,4.417,9.846,9.846
				c0,2.088-0.648,4.084-1.875,5.773C48.778,48.384,48.038,49.123,47.193,49.737z M48.34,50.233
				c0.566-0.463,1.084-0.981,1.547-1.547l1.552,1.552c-0.472,0.557-0.99,1.075-1.547,1.547L48.34,50.233z M57.072,57.418
				c-0.207,0.207-0.481,0.321-0.773,0.321c-0.292,0-0.567-0.114-0.773-0.321l-4.857-4.857c0.554-0.475,1.071-0.993,1.547-1.547
				l4.857,4.857c0.207,0.206,0.321,0.481,0.321,0.773S57.279,57.211,57.072,57.418z"/>
		</g>
	</g>
	<g>
		<g>
			<path fill="#FFFFFF" d="M41.419,33.013c-4.826,0-8.752,3.926-8.752,8.752s3.926,8.752,8.752,8.752s8.752-3.926,8.752-8.752
				S46.246,33.013,41.419,33.013z M41.419,49.424c-4.223,0-7.658-3.436-7.658-7.658s3.436-7.658,7.658-7.658
				s7.658,3.436,7.658,7.658S45.642,49.424,41.419,49.424z"/>
		</g>
	</g>
	<g>
		<g>
			<path fill="#FFFFFF" d="M47.55,39.417c-0.471-1.226-1.291-2.274-2.372-3.031c-1.106-0.775-2.406-1.185-3.758-1.185
				c-0.302,0-0.547,0.245-0.547,0.547s0.245,0.547,0.547,0.547c2.248,0,4.301,1.412,5.109,3.514
				c0.084,0.217,0.291,0.351,0.511,0.351c0.065,0,0.132-0.012,0.196-0.037C47.517,40.015,47.658,39.699,47.55,39.417z"/>
		</g>
	</g>
	<g>
	</g>
	<g>
	</g>
	<g>
	</g>
	<g>
	</g>
	<g>
	</g>
	<g>
	</g>
	<g>
	</g>
	<g>
	</g>
	<g>
	</g>
	<g>
	</g>
	<g>
	</g>
	<g>
	</g>
	<g>
	</g>
	<g>
	</g>
	<g>
	</g>
</g>
</svg>
