<?xml version="1.0" encoding="utf-8"?>
<!-- Generator: Adobe Illustrator 17.0.0, SVG Export Plug-In . SVG Version: 6.00 Build 0)  -->
<!DOCTYPE svg PUBLIC "-//W3C//DTD SVG 1.1 Tiny//EN" "http://www.w3.org/Graphics/SVG/1.1/DTD/svg11-tiny.dtd">
<svg version="1.1" baseProfile="tiny" id="Calque_1"
	 xmlns="http://www.w3.org/2000/svg" xmlns:xlink="http://www.w3.org/1999/xlink" x="0px" y="0px" width="200px" height="200px"
	 viewBox="0 0 200 200" xml:space="preserve">
<g>
	<path fill="black" d="M26.747,2.551h29.456l43.644,128.326L143.181,2.551h29.25v151.78H152.8v-89.58
		c0-3.1,0.068-8.23,0.206-15.395c0.137-7.163,0.206-14.843,0.206-23.041l-43.334,128.016H89.506L45.758,26.316v4.649
		c0,3.72,0.103,9.386,0.31,16.997c0.206,7.612,0.31,13.209,0.31,16.789v89.58H26.747V2.551z"/>
</g>
<line fill="none" stroke="black" stroke-width="3.7264" stroke-miterlimit="10" x1="13.849" y1="164.053" x2="187.426" y2="164.053"/>
<text transform="matrix(1 0 0 1 24.9761 192.7598)" fill="black" font-family="'Helvetica'" font-size="29.1831">M</text>
<text transform="matrix(1 0 0 1 49.2856 192.7598)" fill="black" font-family="'Helvetica'" font-size="29.1831">E</text>
<text transform="matrix(1 0 0 1 68.751 192.7598)" fill="black" font-family="'Helvetica'" font-size="29.1831">M</text>
<text transform="matrix(1 0 0 1 93.0605 192.7598)" fill="black" font-family="'Helvetica'" font-size="29.1831">E</text>
<text transform="matrix(1 0 0 1 112.5254 192.7598)" fill="black" font-family="'Helvetica'" font-size="29.1831">N</text>
<text transform="matrix(1 0 0 1 133.6006 192.7598)" fill="black" font-family="'Helvetica'" font-size="29.1831">T</text>
<text transform="matrix(1 0 0 1 150.9141 192.7598)" fill="black" font-family="'Helvetica'" font-size="29.1831">O</text>
</svg>
