<?xml version="1.0" encoding="utf-8"?>
<!-- Generator: Adobe Illustrator 17.0.0, SVG Export Plug-In . SVG Version: 6.00 Build 0)  -->
<!DOCTYPE svg PUBLIC "-//W3C//DTD SVG 1.1 Tiny//EN" "http://www.w3.org/Graphics/SVG/1.1/DTD/svg11-tiny.dtd">
<svg version="1.1" baseProfile="tiny" id="Capa_1" xmlns="http://www.w3.org/2000/svg" xmlns:xlink="http://www.w3.org/1999/xlink"
	 x="0px" y="0px" width="100px" height="100px" viewBox="0 0 100 100" xml:space="preserve">
<g>
	<path fill="#FFFFFF" d="M80.371,100c-4.161,0-9.186-1.043-14.712-3.128c-12.115-4.568-25.297-13.595-37.116-25.415
		C16.72,59.635,7.692,46.45,3.121,34.335c-4.154-11.015-4.164-20.057-0.024-24.194c0.595-0.595,1.201-1.234,1.826-1.894
		c3.777-3.972,8.045-8.442,13.703-8.241c3.898,0.161,7.675,2.583,11.544,7.396c11.429,14.214,6.276,19.28,0.313,25.152l-1.053,1.043
		c-0.975,0.975-2.819,5.493,14.328,22.64c5.597,5.597,10.37,9.694,14.184,12.172c2.402,1.561,6.697,3.922,8.459,2.159l1.06-1.07
		c5.866-5.95,10.931-11.086,25.135,0.333c4.813,3.868,7.232,7.642,7.393,11.547c0.232,5.654-4.272,9.932-8.247,13.706
		c-0.656,0.626-1.295,1.231-1.89,1.823C87.797,98.967,84.511,100,80.371,100z M18.223,3.363c-4.019,0-7.649,3.821-10.861,7.201
		c-0.646,0.679-1.271,1.339-1.887,1.954C2.391,15.6,2.704,23.696,6.27,33.151c4.406,11.678,13.161,24.439,24.654,35.932
		c11.49,11.486,24.244,20.241,35.925,24.644c9.455,3.572,17.551,3.875,20.628,0.797c0.616-0.616,1.275-1.241,1.954-1.884
		c3.454-3.283,7.373-7.003,7.201-11.13c-0.118-2.835-2.183-5.886-6.138-9.065c-11.836-9.519-15.146-6.159-20.635-0.592l-1.076,1.086
		c-2.624,2.627-6.885,2.045-12.67-1.715c-4.013-2.61-8.97-6.855-14.729-12.616C27.153,44.381,22.603,35.673,27.056,31.21
		l1.073-1.059c5.58-5.489,8.947-8.802-0.575-20.645c-3.185-3.952-6.233-6.017-9.068-6.138C18.398,3.363,18.311,3.363,18.223,3.363z"
		/>
</g>
</svg>
