<?xml version="1.0" encoding="utf-8"?>
<!-- Generator: Adobe Illustrator 17.0.0, SVG Export Plug-In . SVG Version: 6.00 Build 0)  -->
<!DOCTYPE svg PUBLIC "-//W3C//DTD SVG 1.1//EN" "http://www.w3.org/Graphics/SVG/1.1/DTD/svg11.dtd">
<svg version="1.1" id="Capa_1" xmlns="http://www.w3.org/2000/svg" xmlns:xlink="http://www.w3.org/1999/xlink" x="0px" y="0px"
	 width="100px" height="100px" viewBox="0 0 100 100" enable-background="new 0 0 100 100" xml:space="preserve">
<g>
	<path fill="#526586" d="M44.828,4.31C47.679,4.31,50,6.631,50,9.483s-2.321,5.172-5.172,5.172c-0.953,0-1.724,0.771-1.724,1.724
		s0.771,1.724,1.724,1.724c4.753,0,8.621-3.867,8.621-8.621s-3.867-8.621-8.621-8.621c-0.953,0-1.724,0.771-1.724,1.724
		S43.874,4.31,44.828,4.31z"/>
	<path fill="#526586" d="M55.172,4.31c2.852,0,5.172,2.321,5.172,5.172s-2.321,5.172-5.172,5.172c-0.953,0-1.724,0.771-1.724,1.724
		s0.771,1.724,1.724,1.724c4.753,0,8.621-3.867,8.621-8.621s-3.867-8.621-8.621-8.621c-0.953,0-1.724,0.771-1.724,1.724
		S54.219,4.31,55.172,4.31z"/>
	<path fill="#526586" d="M73.964,7.759c-0.802-3.929-4.283-6.897-8.447-6.897c-0.953,0-1.724,0.771-1.724,1.724
		s0.771,1.724,1.724,1.724c2.852,0,5.172,2.321,5.172,5.172s-2.321,5.172-5.172,5.172c-0.953,0-1.724,0.771-1.724,1.724
		s0.771,1.724,1.724,1.724c4.162,0,7.645-2.967,8.447-6.897h22.588v1.724c-0.952,0-1.724,0.772-1.724,1.724s0.772,1.724,1.724,1.724
		v6.897c-0.952,0-1.724,0.772-1.724,1.724c0,0.952,0.772,1.724,1.724,1.724v1.724H3.448v-1.724c0.952,0,1.724-0.772,1.724-1.724
		c0-0.952-0.772-1.724-1.724-1.724v-6.897c0.952,0,1.724-0.772,1.724-1.724S4.4,12.931,3.448,12.931v-1.724h24.138h5.172
		c0.953,0,1.724-0.771,1.724-1.724s-0.771-1.724-1.724-1.724h-3.131c0.714-2.003,2.61-3.448,4.855-3.448
		c2.852,0,5.172,2.321,5.172,5.172s-2.321,5.172-5.172,5.172c-0.953,0-1.724,0.771-1.724,1.724s0.771,1.724,1.724,1.724
		c4.753,0,8.621-3.867,8.621-8.621s-3.867-8.621-8.621-8.621c-4.162,0-7.645,2.967-8.447,6.897H0v24.138v67.241h100V31.897V7.759
		H73.964z M96.552,95.69H3.448V31.897h93.103V95.69z"/>
	<path fill="#526586" d="M21.195,53.805c0.336,0.336,0.778,0.505,1.219,0.505c0.441,0,0.883-0.169,1.219-0.505l7.402-7.402v38.941
		h-5.172c-0.953,0-1.724,0.771-1.724,1.724c0,0.953,0.771,1.724,1.724,1.724h13.793c0.953,0,1.724-0.771,1.724-1.724
		c0-0.953-0.771-1.724-1.724-1.724h-5.172V42.241c0-0.224-0.045-0.448-0.133-0.659c-0.174-0.422-0.51-0.759-0.933-0.933
		c-0.421-0.174-0.895-0.174-1.317,0c-0.212,0.088-0.403,0.216-0.562,0.374L21.195,51.367C20.521,52.041,20.521,53.131,21.195,53.805
		z"/>
	<path fill="#526586" d="M51.724,75c0,7.605,6.188,13.793,13.793,13.793S79.31,82.605,79.31,75c0-5.293-3-9.893-7.386-12.205
		c3.395-2.138,5.662-5.909,5.662-10.209c0-6.653-5.416-12.069-12.069-12.069s-12.069,5.416-12.069,12.069
		c0,4.3,2.267,8.071,5.662,10.209C54.724,65.107,51.724,69.707,51.724,75z M56.897,52.586c0-4.753,3.867-8.621,8.621-8.621
		s8.621,3.867,8.621,8.621s-3.867,8.621-8.621,8.621S56.897,57.34,56.897,52.586z M65.517,64.655c5.705,0,10.345,4.64,10.345,10.345
		s-4.64,10.345-10.345,10.345S55.172,80.705,55.172,75S59.812,64.655,65.517,64.655z"/>
	<circle fill="#526586" cx="13.793" cy="14.655" r="1.724"/>
	<circle fill="#526586" cx="13.793" cy="25" r="1.724"/>
	<circle fill="#526586" cx="8.621" cy="19.828" r="1.724"/>
	<circle fill="#526586" cx="18.966" cy="19.828" r="1.724"/>
	<circle fill="#526586" cx="24.138" cy="14.655" r="1.724"/>
	<circle fill="#526586" cx="24.138" cy="25" r="1.724"/>
	<circle fill="#526586" cx="34.483" cy="25" r="1.724"/>
	<circle fill="#526586" cx="29.31" cy="19.828" r="1.724"/>
	<circle fill="#526586" cx="39.655" cy="19.828" r="1.724"/>
	<circle fill="#526586" cx="44.828" cy="25" r="1.724"/>
	<circle fill="#526586" cx="55.172" cy="25" r="1.724"/>
	<circle fill="#526586" cx="50" cy="19.828" r="1.724"/>
	<circle fill="#526586" cx="60.345" cy="19.828" r="1.724"/>
	<circle fill="#526586" cx="75.862" cy="14.655" r="1.724"/>
	<circle fill="#526586" cx="65.517" cy="25" r="1.724"/>
	<circle fill="#526586" cx="75.862" cy="25" r="1.724"/>
	<circle fill="#526586" cx="70.69" cy="19.828" r="1.724"/>
	<circle fill="#526586" cx="81.034" cy="19.828" r="1.724"/>
	<circle fill="#526586" cx="86.207" cy="14.655" r="1.724"/>
	<circle fill="#526586" cx="86.207" cy="25" r="1.724"/>
	<circle fill="#526586" cx="91.379" cy="19.828" r="1.724"/>
</g>
</svg>
