<?xml version="1.0" encoding="utf-8"?>
<!-- Generator: Adobe Illustrator 17.0.0, SVG Export Plug-In . SVG Version: 6.00 Build 0)  -->
<!DOCTYPE svg PUBLIC "-//W3C//DTD SVG 1.1 Tiny//EN" "http://www.w3.org/Graphics/SVG/1.1/DTD/svg11-tiny.dtd">
<svg version="1.1" baseProfile="tiny" id="Capa_1" xmlns="http://www.w3.org/2000/svg" xmlns:xlink="http://www.w3.org/1999/xlink"
	 x="0px" y="0px" width="100px" height="100px" viewBox="0 0 100 100" xml:space="preserve">
<g>
	<path fill="#FFFFFF" d="M22.067,99.109c-0.245,0-0.494-0.061-0.718-0.182c-0.491-0.264-0.797-0.779-0.797-1.333V76.006
		C7.288,69.109,0,57.033,0,41.903C0,18.521,21.494,0.891,50,0.891s50,17.63,50,41.012c0,23.379-21.494,41.009-50,41.009
		c-0.936,0-1.855-0.052-2.776-0.1l-0.061-0.003L22.9,98.858C22.648,99.024,22.358,99.109,22.067,99.109z M50,3.921
		c-26.776,0-46.97,16.33-46.97,37.982c0,10.07,3.418,23.764,19.706,31.815c0.515,0.255,0.842,0.782,0.842,1.358v19.7l22.33-14.77
		c0.273-0.182,0.603-0.288,0.915-0.248l0.564,0.03c0.867,0.048,1.73,0.094,2.609,0.094c26.776,0,46.97-16.327,46.97-37.979
		S76.776,3.921,50,3.921z"/>
</g>
</svg>
