<?xml version="1.0" encoding="utf-8"?>
<!-- Generator: Adobe Illustrator 17.0.0, SVG Export Plug-In . SVG Version: 6.00 Build 0)  -->
<!DOCTYPE svg PUBLIC "-//W3C//DTD SVG 1.1 Tiny//EN" "http://www.w3.org/Graphics/SVG/1.1/DTD/svg11-tiny.dtd">
<svg version="1.1" baseProfile="tiny" id="Calque_1"
	 xmlns="http://www.w3.org/2000/svg" xmlns:xlink="http://www.w3.org/1999/xlink" x="0px" y="0px" width="100px" height="100px"
	 viewBox="0 0 100 100" xml:space="preserve">
<g>
	<g>
		<path fill="#FFFFFF" d="M50,34.956c-1.77,0-2.95,1.18-2.95,2.95v21.239c0,1.77,1.18,2.95,2.95,2.95c1.77,0,2.95-1.18,2.95-2.95
			V37.906C52.95,36.135,51.77,34.956,50,34.956z"/>
		<path fill="#FFFFFF" d="M51.77,72.124c-1.18-1.18-2.95-1.18-4.13,0c-0.59,0.59-0.59,1.77-0.59,2.36c0,1.18,0,1.77,0.59,2.36
			c0.59,0.59,1.77,0.59,2.36,0.59c0.59,0,1.77,0,1.18-0.59c0.59-0.59,1.18-1.77,1.18-2.36C52.36,73.304,52.36,72.714,51.77,72.124z"
			/>
		<path fill="#FFFFFF" d="M97.787,72.714L62.979,11.947C60.62,7.227,55.31,4.278,50,4.278c-5.31,0-10.029,2.95-12.979,7.669
			L2.212,72.714c-2.95,4.72-2.95,10.619,0,15.339c2.36,4.72,7.669,7.669,12.979,7.669h69.616c5.9,0,10.619-2.95,12.979-7.669
			C100.737,83.333,100.737,77.434,97.787,72.714z M93.068,85.693c-1.18,2.95-4.13,4.72-7.669,4.72H15.192
			c-2.95,0-5.9-1.77-7.669-4.72s-1.77-6.49,0-9.44L42.33,15.487c1.18-2.95,4.13-4.72,7.669-4.72c3.54,0,6.49,1.77,8.26,4.72
			l34.808,60.767C94.838,79.203,94.838,82.743,93.068,85.693z"/>
	</g>
</g>
</svg>
